<svg width="1133" height="694" viewBox="0 0 1133 694" fill="none" xmlns="http://www.w3.org/2000/svg">
<path d="M413.133 123.718C443.131 123.718 467.449 99.4007 467.449 69.4033C467.449 39.4058 443.131 15.0881 413.133 15.0881C383.136 15.0881 358.818 39.4058 358.818 69.4033C358.818 99.4007 383.136 123.718 413.133 123.718Z" fill="#FF6584"/>
<path d="M941.555 165.32C895.278 165.534 857.61 166.217 857.61 166.217C857.61 166.217 902.384 106.91 941.387 128.883C980.389 150.856 1025.19 165.445 1025.19 165.445C1025.19 165.445 987.831 165.107 941.555 165.32Z" fill="#F2F2F2"/>
<path d="M170.555 279.32C124.278 279.534 86.6104 280.217 86.6104 280.217C86.6104 280.217 131.384 220.91 170.387 242.883C209.389 264.856 254.193 279.445 254.193 279.445C254.193 279.445 216.831 279.107 170.555 279.32Z" fill="#F2F2F2"/>
<path d="M338.555 41.3203C292.278 41.5336 254.61 42.2173 254.61 42.2173C254.61 42.2173 299.384 -17.09 338.387 4.88292C377.389 26.8558 422.193 41.4449 422.193 41.4449C422.193 41.4449 384.831 41.107 338.555 41.3203Z" fill="#F2F2F2"/>
<path d="M133.398 693.112L131.447 692.672C153.203 595.921 207.877 508.063 285.398 445.281C344.007 397.889 413.713 366.194 487.952 353.178C562.192 340.163 638.523 346.256 709.758 370.883C780.992 395.511 844.787 437.863 895.136 493.952C945.484 550.041 980.73 618.021 997.553 691.492L995.604 691.935C949.55 489.726 772.329 348.5 564.634 348.5C359.66 348.5 178.3 493.43 133.398 693.112Z" fill="#3F3D56"/>
<path d="M333.71 181.988L313.286 165.648L427.66 63.529H717.679V153.394L529.779 280.022L333.71 181.988Z" fill="#3F3D56"/>
<path d="M770.556 120.812V65.569H732.05V79.098L717.679 63.529L623.729 165.648L586.966 190.157L529.964 606.62L615.93 692.585H815.714V169.733L770.556 120.812Z" fill="#CCCCCC"/>
<path d="M623.729 165.648H313.286V692.585H623.729V165.648Z" fill="#F2F2F2"/>
<path d="M490.974 563.914H433.787V692.585H490.974V563.914Z" fill="#CCCCCC"/>
<path d="M372.515 600.677V580.253H348.007V600.677H370.473H372.515Z" fill="#3F3D56"/>
<path d="M370.473 617.016H348.007V637.44H372.515V617.016H370.473Z" fill="#3F3D56"/>
<path d="M413.363 580.253H388.855V600.677H413.363V580.253Z" fill="#3F3D56"/>
<path d="M413.363 617.016H388.855V637.44H413.363V617.016Z" fill="#3F3D56"/>
<path d="M539.991 600.677V580.253H515.483V600.677H537.949H539.991Z" fill="#3F3D56"/>
<path d="M580.839 580.253H556.33V600.677H580.839V580.253Z" fill="#3F3D56"/>
<path d="M711.552 192.199V171.776H687.043V192.199H709.51H711.552Z" fill="#3F3D56"/>
<path d="M709.51 208.539H687.043V228.962H711.552V208.539H709.51Z" fill="#3F3D56"/>
<path d="M752.4 171.776H727.891V192.199H752.4V171.776Z" fill="#3F3D56"/>
<path d="M752.4 208.539H727.891V228.962H752.4V208.539Z" fill="#3F3D56"/>
<path d="M711.552 306.573V286.149H687.043V306.573H709.51H711.552Z" fill="#3F3D56"/>
<path d="M709.51 322.912H687.043V343.336H711.552V322.912H709.51Z" fill="#3F3D56"/>
<path d="M752.4 286.149H727.891V306.573H752.4V286.149Z" fill="#3F3D56"/>
<path d="M752.4 322.912H727.891V343.336H752.4V322.912Z" fill="#3F3D56"/>
<path d="M711.552 420.947V400.523H687.043V420.947H709.51H711.552Z" fill="#3F3D56"/>
<path d="M709.51 437.286H687.043V457.71H711.552V437.286H709.51Z" fill="#3F3D56"/>
<path d="M752.4 400.523H727.891V420.947H752.4V400.523Z" fill="#3F3D56"/>
<path d="M752.4 437.286H727.891V457.71H752.4V437.286Z" fill="#3F3D56"/>
<path d="M711.552 535.321V514.897H687.043V535.321H709.51H711.552Z" fill="#3F3D56"/>
<path d="M709.51 551.66H687.043V572.084H711.552V551.66H709.51Z" fill="#3F3D56"/>
<path d="M752.4 514.897H727.891V535.321H752.4V514.897Z" fill="#3F3D56"/>
<path d="M584.924 290.234H348.007V339.251H584.924V290.234Z" fill="#3F3D56"/>
<path d="M584.924 388.269H348.007V437.286H584.924V388.269Z" fill="#3F3D56"/>
<path opacity="0.1" d="M246.497 504.16C246.871 593.588 189.783 666.375 189.783 666.375C189.783 666.375 132.088 594.171 131.714 504.743C131.34 415.316 188.428 342.529 188.428 342.529C188.428 342.529 246.123 414.733 246.497 504.16Z" fill="black"/>
<path d="M170.125 504.16C170.499 593.588 113.41 666.375 113.41 666.375C113.41 666.375 55.7155 594.171 55.3415 504.743C54.9676 415.316 112.056 342.529 112.056 342.529C112.056 342.529 169.751 414.733 170.125 504.16Z" fill="#6C63FF"/>
<path d="M1042.03 459.615H1031.03V721.668H1042.03V459.615Z" fill="#3F3D56"/>
<path d="M1091.13 504.16C1091.5 593.588 1034.41 666.375 1034.41 666.375C1034.41 666.375 976.715 594.171 976.342 504.743C975.968 415.316 1033.06 342.529 1033.06 342.529C1033.06 342.529 1090.75 414.733 1091.13 504.16Z" fill="#6C63FF"/>
<path d="M820.667 550.356H879.956V533.318H912.667V550.356H974V625.812H912.667V720.74H879.956V625.812H820.667L790 584.433L820.667 550.356Z" fill="#3F3D56"/>
<path d="M121.033 459.615H110.033V721.668H121.033V459.615Z" fill="#3F3D56"/>
<path d="M246.497 504.16C246.871 593.588 189.783 666.375 189.783 666.375C189.783 666.375 132.088 594.171 131.714 504.743C131.34 415.316 188.428 342.529 188.428 342.529C188.428 342.529 246.123 414.733 246.497 504.16Z" fill="#6C63FF"/>
<path d="M584.924 486.304H348.007V535.321H584.924V486.304Z" fill="#3F3D56"/>
<path d="M1137 689H0V691H1137V689Z" fill="#3F3D56"/>
<path d="M197.405 459.615H186.405V721.668H197.405V459.615Z" fill="#3F3D56"/>
<path d="M179.131 680.773C180.825 687.035 186.627 690.913 186.627 690.913C186.627 690.913 189.682 684.639 187.988 678.377C186.294 672.115 180.492 668.237 180.492 668.237C180.492 668.237 177.437 674.511 179.131 680.773Z" fill="#3F3D56"/>
<path d="M181.62 679.427C186.268 683.952 186.836 690.908 186.836 690.908C186.836 690.908 179.867 690.527 175.219 686.002C170.571 681.478 170.003 674.522 170.003 674.522C170.003 674.522 176.972 674.902 181.62 679.427Z" fill="#6C63FF"/>
<path d="M308.131 680.773C309.825 687.035 315.627 690.913 315.627 690.913C315.627 690.913 318.682 684.639 316.988 678.377C315.295 672.115 309.492 668.237 309.492 668.237C309.492 668.237 306.437 674.511 308.131 680.773Z" fill="#3F3D56"/>
<path d="M310.62 679.427C315.268 683.952 315.836 690.908 315.836 690.908C315.836 690.908 308.867 690.527 304.219 686.002C299.571 681.478 299.003 674.522 299.003 674.522C299.003 674.522 305.972 674.902 310.62 679.427Z" fill="#6C63FF"/>
<path d="M537.949 617.016H515.483V637.44H539.991V617.016H537.949Z" fill="#3F3D56"/>
<path d="M580.839 617.016H556.33V637.44H580.839V617.016Z" fill="#3F3D56"/>
<path d="M752.4 551.66H727.891V572.084H752.4V551.66Z" fill="#3F3D56"/>
<path d="M584.924 192.199H348.007V241.217H584.924V192.199Z" fill="#3F3D56"/>
</svg>
