<svg width="1440" height="1024" viewBox="0 0 1440 1024" fill="none" xmlns="http://www.w3.org/2000/svg">
<g id="Myuniverse 1">
<g id="bg">
<path id="Vector" d="M211.32 873.279C302.204 832.386 490.082 763.784 727.231 763.784C964.38 763.784 1152.26 832.386 1243.14 873.279C1331.62 913.091 1402.78 960.031 1436.3 998.33C1448.52 983.895 1430.58 727.092 1380.96 625.248C1308.2 475.582 1186.19 347.876 1030.19 258.128C874.197 168.38 691.159 120.579 504.007 120.715C437.438 120.557 371.495 131.861 309.993 153.973C248.492 176.084 192.654 208.564 145.711 249.531C143.717 251.262 141.742 253.004 139.786 254.759C34.7549 348.932 -14.2871 479.951 3.61833 610.097C16.3662 702.755 47.7837 896.559 92.1751 937.652C129.765 913.365 169.617 891.833 211.32 873.279V873.279Z" fill="#F2F2F2"/>
</g>
<g id="planet">
<path id="Vector_2" d="M891.183 182.272C752.768 182.261 644.345 160.481 644.348 132.687C644.35 116.024 682.77 101.159 749.757 91.9063C749.996 91.872 750.241 91.8791 750.478 91.9273C750.714 91.9755 750.937 92.0637 751.134 92.187C751.331 92.3103 751.498 92.4661 751.625 92.6455C751.752 92.825 751.838 93.0245 751.876 93.2326C751.914 93.4407 751.904 93.6533 751.847 93.8582C751.79 94.0631 751.688 94.2562 751.544 94.4264C751.401 94.5966 751.221 94.7406 751.013 94.8501C750.806 94.9595 750.576 95.0323 750.336 95.0643C687.234 103.781 648.034 118.198 648.032 132.688C648.03 157.821 759.379 179.064 891.183 179.074C1022.99 179.084 1134.34 157.86 1134.34 132.726C1134.34 118.175 1094.9 103.717 1031.39 94.9957C1031.15 94.9634 1030.92 94.8904 1030.72 94.7809C1030.51 94.6714 1030.33 94.5275 1030.19 94.3575C1030.04 94.1875 1029.94 93.9947 1029.89 93.7902C1029.83 93.5857 1029.82 93.3735 1029.86 93.1657C1029.89 92.9579 1029.98 92.7586 1030.11 92.5793C1030.23 92.4 1030.4 92.2442 1030.6 92.1208C1030.79 91.9973 1031.01 91.9087 1031.25 91.8601C1031.49 91.8114 1031.73 91.8036 1031.97 91.837C1099.37 101.094 1138.03 115.998 1138.03 132.726C1138.02 160.52 1029.6 182.283 891.183 182.272Z" fill="#3F3D56"/>
<path id="Vector_3" d="M768.722 191.597C781.244 210.212 799.178 225.646 820.73 236.356C842.282 247.065 866.697 252.674 891.531 252.622C916.365 252.57 940.748 246.857 962.24 236.057C983.732 225.257 1001.58 209.747 1014 191.08C932.311 195.153 850.429 195.326 768.722 191.597V191.597Z" fill="#6C63FF"/>
<path id="Vector_4" d="M1027.58 156.897C1033.62 138.524 1034.64 119.183 1030.58 100.406C1026.52 81.628 1017.48 63.9286 1004.17 48.7084C990.866 33.4882 973.662 21.165 953.92 12.714C934.178 4.26307 912.441 -0.0836482 890.43 0.0178824C868.418 0.119413 846.735 4.66642 827.098 13.299C807.461 21.9316 790.408 34.4129 777.289 49.7549C764.171 65.097 755.346 82.8788 751.514 101.693C747.682 120.507 748.948 139.837 755.211 158.153C845.68 167.96 937.233 167.538 1027.58 156.897V156.897Z" fill="#6C63FF"/>
<path id="Vector_5" d="M924.357 68.7516C933.513 68.7516 940.935 62.3091 940.935 54.3617C940.935 46.4144 933.513 39.9719 924.357 39.9719C915.2 39.9719 907.778 46.4144 907.778 54.3617C907.778 62.3091 915.2 68.7516 924.357 68.7516Z" fill="white"/>
<path id="Vector_6" d="M837.769 137.499C853.03 137.499 865.401 126.761 865.401 113.516C865.401 100.27 853.03 89.5328 837.769 89.5328C822.509 89.5328 810.138 100.27 810.138 113.516C810.138 126.761 822.509 137.499 837.769 137.499Z" fill="white"/>
<path id="Vector_7" d="M891.199 241.43C900.355 241.43 907.778 234.988 907.778 227.04C907.778 219.093 900.355 212.65 891.199 212.65C882.043 212.65 874.62 219.093 874.62 227.04C874.62 234.988 882.043 241.43 891.199 241.43Z" fill="white"/>
</g>
<g id="body">
<path id="Vector_8" d="M568.688 315.107C568.688 343.364 598.79 339.09 635.924 339.09C673.057 339.09 703.16 343.364 703.16 315.107C703.16 286.85 688.456 236.762 635.924 236.762C581.582 236.762 568.688 286.85 568.688 315.107Z" fill="#2F2E41"/>
<path id="Vector_9" d="M486.3 554.384C484.953 552.161 484.183 549.71 484.046 547.202C483.909 544.693 484.407 542.189 485.505 539.866C486.603 537.543 488.275 535.457 490.402 533.756C492.529 532.054 495.061 530.778 497.818 530.017L574.847 388.582L610.082 410.028L523.285 542.31C524.451 546.415 523.841 550.748 521.571 554.489C519.301 558.23 515.53 561.118 510.971 562.606C506.412 564.094 501.382 564.079 496.835 562.563C492.288 561.048 488.539 558.137 486.3 554.383V554.384Z" fill="#FFB8B8"/>
<path id="Vector_10" d="M766.007 827.704L744.786 834.411L704.885 766.558L736.204 756.66L766.007 827.704Z" fill="#FFB8B8"/>
<path id="Vector_11" d="M727.42 833.939L768.346 821.005L777.728 843.371L711.035 864.448C709.803 861.511 709.249 858.392 709.406 855.269C709.562 852.146 710.426 849.081 711.948 846.248C713.469 843.415 715.619 840.869 718.274 838.757C720.928 836.645 724.037 835.008 727.42 833.939Z" fill="#2F2E41"/>
<path id="Vector_12" d="M708.075 784.785L627.231 661.988C626.45 660.8 626.048 659.453 626.064 658.085C626.081 656.717 626.517 655.378 627.327 654.204L663.731 601.542C664.594 600.293 665.848 599.282 667.347 598.626C668.845 597.971 670.527 597.697 672.198 597.838C673.868 597.979 675.458 598.528 676.784 599.422C678.109 600.316 679.115 601.517 679.685 602.887L748.512 768.32C749.27 770.121 749.223 772.103 748.381 773.875C747.54 775.648 745.964 777.082 743.965 777.897L719.577 787.923C718.4 788.407 717.114 788.657 715.812 788.657C714.244 788.659 712.703 788.302 711.345 787.622C709.986 786.942 708.858 785.964 708.075 784.785V784.785Z" fill="#2F2E41"/>
<path id="Vector_13" d="M633.055 337.556C658.042 337.556 678.298 319.974 678.298 298.286C678.298 276.598 658.042 259.016 633.055 259.016C608.067 259.016 587.811 276.598 587.811 298.286C587.811 319.974 608.067 337.556 633.055 337.556Z" fill="#FFB8B8"/>
<path id="Vector_14" d="M568.701 476.163C533.071 407.59 568.991 369.264 586.088 355.97C591.012 352.136 597.396 350.017 604.012 350.02H667.747C672.324 350.02 676.824 351.036 680.822 352.97C684.82 354.904 688.181 357.694 690.587 361.073C692.994 364.452 694.365 368.309 694.57 372.278C694.776 376.246 693.81 380.195 691.763 383.748L649.156 457.71L569.048 476.832L568.701 476.163Z" fill="#6C63FF"/>
<path id="Vector_15" d="M620.226 846.246L597.642 846.245L586.899 770.637L620.23 770.639L620.226 846.246Z" fill="#FFB8B8"/>
<path id="Vector_16" d="M581.511 840.644H625.065V864.446H554.089C554.089 858.134 556.978 852.079 562.12 847.616C567.263 843.152 574.238 840.644 581.511 840.644V840.644Z" fill="#2F2E41"/>
<path id="Vector_17" d="M610.657 817.382L574.5 813.762C573.33 813.645 572.198 813.326 571.171 812.825C570.144 812.325 569.242 811.651 568.518 810.844C567.794 810.038 567.262 809.114 566.953 808.127C566.645 807.14 566.566 806.11 566.721 805.096L598.991 594.205C599.103 593.47 599.058 592.724 598.857 592.004L566.422 475.854C566.115 474.783 566.081 473.666 566.32 472.582C566.56 471.498 567.068 470.473 567.81 469.576C572.84 463.558 590.073 449.532 641.336 449.266H641.391C643.099 449.266 644.77 449.692 646.206 450.494C647.642 451.295 648.782 452.438 649.491 453.785L656.33 466.842C656.839 467.811 657.635 468.646 658.637 469.26C668.05 475.043 713.646 507.502 686.872 578.765C660.558 648.808 626.844 784.788 620.353 811.336C619.939 813.061 618.852 814.61 617.275 815.721C615.699 816.832 613.73 817.437 611.699 817.434C611.351 817.434 611.003 817.417 610.657 817.382V817.382Z" fill="#2F2E41"/>
<path id="Vector_18" d="M790.515 308.142C790.603 309.024 790.771 309.898 791.017 310.756L729.589 369.448L707.894 365.389L696.558 393.008L734.161 403.432C737.198 404.274 740.469 404.238 743.481 403.33C746.494 402.421 749.085 400.689 750.867 398.393L808.931 323.573C812.854 323.725 816.737 322.836 820.064 321.025C823.39 319.214 826.003 316.568 827.554 313.437C829.105 310.305 829.522 306.839 828.748 303.497C827.973 300.156 826.046 297.098 823.22 294.731C820.395 292.364 816.807 290.8 812.932 290.246C809.058 289.692 805.081 290.175 801.531 291.631C797.98 293.087 795.025 295.446 793.057 298.396C791.089 301.345 790.203 304.745 790.515 308.142H790.515Z" fill="#FFB8B8"/>
<path id="Vector_19" d="M727.73 371.935L713.488 406.107C713.083 407.079 712.441 407.964 711.606 408.702C710.771 409.439 709.763 410.012 708.65 410.381C707.538 410.75 706.346 410.906 705.158 410.839C703.969 410.772 702.811 410.484 701.762 409.994L665.016 392.81C659.295 390.984 654.641 387.263 652.077 382.462C649.513 377.662 649.246 372.175 651.337 367.204C653.427 362.234 657.704 358.186 663.228 355.949C668.752 353.712 675.074 353.467 680.805 355.27L721.582 362.436C722.749 362.642 723.852 363.063 724.815 363.672C725.778 364.281 726.578 365.063 727.162 365.964C727.745 366.866 728.098 367.865 728.196 368.896C728.294 369.926 728.135 370.963 727.73 371.935V371.935Z" fill="#6C63FF"/>
<path id="Vector_20" d="M688.423 295.92H670.529L662.634 276.734L661.055 295.92H652.503L647.897 284.728L646.976 295.92H583.424C583.424 284.895 588.47 274.321 597.452 266.525C606.434 258.729 618.616 254.349 631.319 254.349H640.529C653.231 254.349 665.413 258.729 674.395 266.525C683.377 274.321 688.423 284.895 688.423 295.92V295.92Z" fill="#2F2E41"/>
<path id="Vector_21" d="M552.305 407.36C551.938 406.3 551.839 405.184 552.015 404.088C552.19 402.991 552.636 401.941 553.322 401.008L577.272 368.42C579.934 363.25 584.849 359.208 590.939 357.179C597.03 355.15 603.799 355.3 609.762 357.597C615.725 359.893 620.396 364.148 622.75 369.429C625.105 374.709 624.95 380.585 622.321 385.767L610.257 423.106C609.913 424.172 609.308 425.16 608.484 426.005C607.659 426.849 606.635 427.529 605.481 427.999C604.326 428.469 603.069 428.717 601.794 428.727C600.519 428.737 599.256 428.508 598.092 428.057L557.182 412.178C556.018 411.727 554.979 411.063 554.137 410.231C553.296 409.4 552.671 408.42 552.305 407.36V407.36Z" fill="#6C63FF"/>
</g>
</g>
</svg>
