<svg width="637" height="676" viewBox="0 0 637 676" fill="none" xmlns="http://www.w3.org/2000/svg">
<g id="powertosatone">
<g id="flyflag">
<path id="Vector 5" d="M262 158.323C262 158.323 367.12 210.521 385.97 203.271C404.819 196.021 411.343 131.499 411.343 131.499L333.772 117L262 158.323Z" fill="#03C4A1"/>
<path id="Vector 7" d="M446.208 90.4931C446.208 90.4931 335.659 46.0437 239.964 3.27066C239.964 3.27066 189.941 -9.05374 163.842 14.1452C163.842 14.1452 185.591 11.2453 185.591 23.5697C185.591 23.5697 204.44 48.2186 145.718 52.5683C104.822 55.5977 88.5397 80.0761 82.4226 94.6581C77.6469 106.364 69.2519 116.235 58.4649 122.828C44.3302 131.276 23.8447 137.491 0 126.515C0 126.515 1.35558 128.599 3.92694 132.071C49.9652 194.243 221.408 248.352 281.949 200.189C319.364 170.425 378.677 132.804 421.196 151.753C487.893 181.477 500.218 168.427 500.218 168.427L503.118 160.453C503.118 160.453 438.596 143.053 437.146 120.58C435.696 98.1061 446.208 90.4931 446.208 90.4931Z" fill="#03C4A1"/>
</g>
<g id="bushbg">
<path id="Vector" d="M552.291 647.193H331.017C331.017 647.193 326.532 581.409 353.07 580.662C379.608 579.914 376.618 609.816 409.884 568.701C443.149 527.586 483.517 529.828 488.75 554.124C493.983 578.419 478.658 597.855 506.691 591.875C534.724 585.894 575.091 601.593 552.291 647.193Z" fill="#03C4A1"/>
<path id="Vector 2" d="M437.919 647.208L437.172 647.178C438.914 603.867 447.985 576.038 455.288 560.32C463.217 543.254 470.858 536.345 470.934 536.277L471.431 536.836C471.356 536.903 463.804 543.743 455.938 560.694C448.676 576.346 439.654 604.06 437.919 647.208Z" fill="#F2F2F2"/>
<path id="Vector 3" d="M518.004 647.298L517.286 647.089C525.927 617.429 546.277 598.702 546.481 598.516L546.984 599.07C533.485 612.502 523.528 629.073 518.004 647.298Z" fill="#F2F2F2"/>
<path id="Vector 4" d="M365.869 647.245L365.128 647.142C367.541 630.904 364.988 614.315 357.805 599.554C354.859 593.362 350.959 587.671 346.248 582.689L346.765 582.149C351.538 587.193 355.489 592.954 358.475 599.222C365.725 614.118 368.302 630.858 365.869 647.245Z" fill="#F2F2F2"/>
<path id="Vector 5_2" d="M582.322 648.193H307.151L307.087 647.261C306.929 644.942 303.419 590.245 321.142 570.729C322.9 568.668 325.07 566.997 327.513 565.825C329.956 564.652 332.618 564.005 335.326 563.923C346.878 563.595 354.138 567.922 359.994 571.395C371.03 577.942 378.321 582.268 404.831 549.503C433.548 514.009 464.534 506.372 482.346 510.619C493.855 513.363 501.787 521.118 504.109 531.896C506.307 542.102 505.607 551.692 505.044 559.398C504.442 567.642 503.967 574.155 507.353 577.106C510.18 579.568 515.822 579.792 525.108 577.81C543.996 573.781 570.351 577.229 583.58 594.321C590.697 603.516 596.303 620.231 582.599 647.641L582.322 648.193ZM309.029 646.193H581.084C591.296 625.474 591.615 607.971 581.998 595.545C569.863 579.866 544.403 575.739 525.525 579.766C515.436 581.919 509.424 581.564 506.039 578.614C501.899 575.006 502.407 568.054 503.049 559.252C503.603 551.674 504.292 542.243 502.154 532.317C500.001 522.322 492.612 515.122 481.882 512.564C464.638 508.45 434.519 515.99 406.385 550.761C378.79 584.869 370.477 579.939 358.974 573.115C353.046 569.599 346.315 565.612 335.383 565.922C332.944 566.001 330.549 566.588 328.351 567.648C326.154 568.707 324.202 570.215 322.622 572.074C306.694 589.614 308.639 638.799 309.029 646.193Z" fill="#CFCCE0"/>
<path id="Vector 6" d="M636.398 646.94H241.657V648.94H636.398V646.94Z" fill="#CFCCE0"/>
</g>
<g id="body">
<path id="Vector 7_2" d="M355.866 252.42L350.847 336.064C350.847 336.064 334.119 382.904 355.866 382.904C377.613 382.904 364.23 332.718 364.23 332.718L384.305 250.748L355.866 252.42Z" fill="#FFB9B9"/>
<path id="Vector 8" d="M518.134 242.383L523.153 326.027C523.153 326.027 539.882 372.867 518.134 372.867C496.387 372.867 509.77 322.681 509.77 322.681L489.695 240.71L518.134 242.383Z" fill="#FFB9B9"/>
<path id="Vector 9" d="M417.762 597.032L421.108 638.853C421.108 638.853 407.725 672.311 429.472 675.657C429.69 675.69 429.905 675.722 430.118 675.752C432.814 676.123 435.56 675.851 438.131 674.957C440.702 674.064 443.026 672.576 444.912 670.613C446.797 668.65 448.192 666.269 448.982 663.665C449.772 661.06 449.934 658.305 449.456 655.626L446.201 637.181C446.201 637.181 447.874 603.723 437.836 597.032C427.799 590.34 417.762 597.032 417.762 597.032Z" fill="#2F2E41"/>
<path id="Vector 10" d="M449.547 560.229C449.547 560.229 446.201 570.266 447.874 580.303C449.547 590.34 451.219 618.779 451.219 618.779C451.219 618.779 451.219 648.891 462.93 648.891C467.112 648.891 470.654 645.263 473.479 640.599C476.403 635.653 478.292 630.165 479.032 624.467C479.773 618.769 479.348 612.98 477.785 607.451L471.294 583.649V565.247L449.547 560.229Z" fill="#2F2E41"/>
<path id="Vector 11" d="M387.65 254.093C387.65 254.093 350.847 302.607 370.922 374.54C390.996 446.473 392.669 466.548 392.669 466.548L404.379 603.723C404.379 603.723 424.453 610.415 441.182 600.377L436.164 468.221V387.923L446.201 476.585V565.247C446.201 565.247 469.621 588.667 486.35 566.92L489.695 468.221C489.695 468.221 499.733 331.045 493.041 317.662C486.35 304.279 471.294 257.439 471.294 257.439L387.65 254.093Z" fill="#2F2E41"/>
<path id="Vector 12" d="M420.966 28.377C420.966 28.377 403.953 22.301 393.016 46.605C382.079 70.909 365.067 97.644 365.067 97.644L374.788 100.074C374.788 100.074 377.219 83.061 383.295 80.631L380.864 102.505C380.864 102.505 453.776 128.024 486.586 100.074L485.371 91.568C485.371 91.568 490.232 92.783 490.232 100.074L493.878 96.429C493.878 96.429 490.232 89.137 479.295 79.416C472.117 73.035 469.65 60.895 468.802 53.306C468.167 46.968 465.632 40.971 461.528 36.099C454.26 27.676 441.016 18.723 420.966 28.377Z" fill="#2F2E41"/>
<path id="Vector 13" d="M429.472 108.554C447.026 108.554 461.257 94.323 461.257 76.769C461.257 59.215 447.026 44.984 429.472 44.984C411.918 44.984 397.688 59.215 397.688 76.769C397.688 94.323 411.918 108.554 429.472 108.554Z" fill="#FFB9B9"/>
<path id="Vector 14" d="M421.108 96.843L411.07 136.992L441.182 223.982L464.602 131.974C464.602 131.974 442.855 116.918 447.874 96.843H421.108Z" fill="#FFB9B9"/>
<path id="Vector 15" d="M503.078 326.027C503.078 326.027 454.565 344.428 444.528 315.99C434.491 287.551 436.164 265.803 436.164 265.803C436.164 265.803 421.108 324.354 396.015 324.354C370.922 324.354 357.539 315.99 357.539 315.99C357.539 315.99 375.94 257.439 392.669 247.402C392.669 247.402 392.753 247.201 392.903 246.833C393.84 244.491 397.152 235.207 394.827 227.043C394.355 225.363 393.627 223.767 392.669 222.309C385.977 212.272 379.286 208.926 380.959 183.833L367.576 136.992L413.73 126.353L437.836 202.234L459.784 127.942L499.733 133.647C499.733 133.647 503.078 193.87 486.35 215.617C483.719 219.043 481.725 222.913 480.461 227.043C477.55 236.277 478.236 245.997 479.809 253.759H479.825C480.876 259.051 482.503 264.212 484.677 269.149L503.078 326.027Z" fill="#CFCCE0"/>
<path id="Vector 16" d="M489.695 135.319L499.733 133.647C499.733 133.647 503.915 132.81 511.443 138.665C521.056 146.142 521.48 247.402 521.48 247.402L489.695 249.075V135.319Z" fill="#CFCCE0"/>
<path id="Vector 17" d="M375.94 140.338L367.576 136.992C367.576 136.992 364.23 135.319 362.557 145.357C360.884 155.394 352.52 259.112 352.52 259.112L387.65 257.439V182.16L375.94 140.338Z" fill="#CFCCE0"/>
<path id="Vector 18" d="M392.708 81.396C392.708 81.396 402.43 68.029 410.936 65.599C419.443 63.168 420.658 51.016 420.658 51.016C420.658 51.016 442.532 75.32 455.899 76.536C469.266 77.751 457.114 47.371 457.114 47.371L432.81 41.295L409.721 43.725L391.493 55.877L392.708 81.396Z" fill="#2F2E41"/>
<path id="Vector 19" d="M438.673 246.565C444.216 246.565 448.71 242.072 448.71 236.528C448.71 230.985 444.216 226.491 438.673 226.491C433.129 226.491 428.636 230.985 428.636 236.528C428.636 242.072 433.129 246.565 438.673 246.565Z" fill="#2F2E41"/>
</g>
</g>
</svg>
