<svg width="861" height="772" viewBox="0 0 861 772" fill="none" xmlns="http://www.w3.org/2000/svg">
<g id="superwomanone" clip-path="url(#clip0)">
<g id="floor">
<path id="Vector" d="M449.783 771.924C606.079 771.924 732.783 752.673 732.783 728.924C732.783 705.176 606.079 685.924 449.783 685.924C293.486 685.924 166.783 705.176 166.783 728.924C166.783 752.673 293.486 771.924 449.783 771.924Z" fill="#F2F2F2"/>
</g>
<g id="clouds">
<path id="Vector_2" d="M586.758 113.838C587.541 98.8758 594.036 84.785 604.903 74.4713C615.771 64.1577 630.182 58.4077 645.164 58.4074C646.942 58.4074 648.697 58.5002 650.434 58.6554C657.266 46.9013 667.063 37.1454 678.845 30.3621C690.628 23.5788 703.984 20.0056 717.579 19.9991C731.175 19.9927 744.534 23.5534 756.323 30.3255C768.112 37.0977 777.917 46.8443 784.761 58.5919C786.226 58.4819 787.702 58.4075 789.195 58.4075C804.178 58.4078 818.589 64.1577 829.456 74.4714C840.323 84.785 846.818 98.8759 847.601 113.838" fill="#F2F2F2"/>
<path id="Vector_3" d="M161.758 391.838C162.541 376.876 169.036 362.785 179.903 352.471C190.771 342.158 205.182 336.408 220.164 336.407C221.942 336.407 223.697 336.5 225.434 336.655C232.266 324.901 242.063 315.145 253.845 308.362C265.628 301.579 278.984 298.006 292.579 297.999C306.175 297.993 319.534 301.553 331.323 308.326C343.112 315.098 352.917 324.844 359.761 336.592C361.226 336.482 362.702 336.407 364.195 336.407C379.178 336.408 393.589 342.158 404.456 352.471C415.323 362.785 421.818 376.876 422.601 391.838" fill="#F2F2F2"/>
<path id="Vector_4" d="M37.7581 98.8377C38.5411 83.8758 45.036 69.785 55.9034 59.4713C66.7707 49.1577 81.1817 43.4077 96.164 43.4074C97.9415 43.4074 99.6968 43.5002 101.434 43.6554C108.266 31.9013 118.063 22.1454 129.845 15.3621C141.628 8.57885 154.984 5.00555 168.579 4.99912C182.175 4.9927 195.534 8.55336 207.323 15.3255C219.112 22.0977 228.917 31.8443 235.761 43.5919C237.226 43.4819 238.702 43.4075 240.195 43.4075C255.178 43.4078 269.589 49.1577 280.456 59.4714C291.323 69.785 297.818 83.8759 298.601 98.8377" fill="#F2F2F2"/>
</g>
<g id="flyflag">
<path id="Vector_5" d="M295.052 217.473C295.052 217.473 400.172 269.671 419.022 262.421C437.871 255.171 444.395 190.649 444.395 190.649L366.824 176.15L295.052 217.473Z" fill="#2F2E41"/>
<path id="Vector_6" d="M446.208 134.464C446.208 134.464 335.659 90.0146 239.964 47.2416C239.964 47.2416 189.941 34.9172 163.842 58.1161C163.842 58.1161 185.591 55.2162 185.591 67.5406C185.591 67.5406 204.44 92.1895 145.718 96.5392C104.822 99.5686 88.5397 124.047 82.4226 138.629C77.6469 150.335 69.2519 160.206 58.4649 166.799C44.3302 175.247 23.8447 181.462 0 170.486C0 170.486 1.35558 172.57 3.92694 176.042C49.9652 238.214 221.408 292.323 281.949 244.16C319.364 214.396 378.677 176.775 421.196 195.724C487.893 225.448 500.218 212.398 500.218 212.398L503.118 204.424C503.118 204.424 438.596 187.024 437.146 164.551C435.696 142.077 446.208 134.464 446.208 134.464Z" fill="#2F2E41"/>
</g>
<g id="body">
<path id="Vector_7" d="M512.905 139.539H444.033V199.711H512.905V139.539Z" fill="#2F2E41"/>
<path id="Vector_8" d="M381.323 395.815C381.323 395.815 378.424 458.887 397.998 457.437C417.572 455.987 397.998 397.99 397.998 397.99L381.323 395.815Z" fill="#FBBEBE"/>
<path id="Vector_9" opacity="0.1" d="M461.795 148.601C461.795 148.601 466.144 176.15 458.17 179.775C450.195 183.4 445.12 186.3 445.12 186.3L463.244 198.624L496.593 200.799L505.292 194.274L513.267 187.024C513.267 187.024 500.218 184.125 500.218 177.6C500.218 171.075 499.493 151.501 499.493 151.501L461.795 148.601Z" fill="black"/>
<path id="Vector_10" d="M416.122 406.689C416.122 406.689 395.098 474.111 395.098 523.409C395.098 523.409 360.299 601.705 361.749 640.128L353.05 693.051L365.374 697.4L374.799 689.426C374.799 689.426 377.699 661.152 387.123 647.378C396.548 633.603 418.297 568.356 418.297 568.356C418.297 568.356 476.294 446.562 474.119 429.163C471.944 411.764 416.122 406.689 416.122 406.689Z" fill="#FBBEBE"/>
<path id="Vector_11" d="M544.441 391.465C544.441 391.465 558.215 397.989 538.641 513.984C538.641 513.984 549.515 590.83 540.091 632.878L538.641 674.926H523.417L520.517 670.577C520.517 670.577 519.792 632.878 514.717 622.729C509.642 612.579 505.293 553.857 505.293 553.857C505.293 553.857 482.094 434.238 487.168 424.088C492.243 413.939 544.441 391.465 544.441 391.465Z" fill="#FBBEBE"/>
<path id="Vector_12" d="M350.875 680.726C350.875 680.726 355.95 692.326 365.374 689.426C374.799 686.526 376.974 686.526 376.974 686.526C376.974 686.526 370.449 719.874 372.624 735.824C374.799 751.773 371.174 761.922 356.675 761.922C342.175 761.922 340 744.523 340 744.523L346.525 703.2L350.875 680.726Z" fill="#2F2E41"/>
<path id="Vector_13" d="M517.617 662.602C517.617 662.602 522.692 672.751 530.666 670.577C538.641 668.402 541.541 664.777 541.541 664.777C541.541 664.777 540.816 687.251 543.716 697.4C546.616 707.55 553.14 736.548 537.916 737.998C533.735 738.506 529.501 737.652 525.844 735.562C522.187 733.473 519.302 730.259 517.617 726.399V662.602L517.617 662.602Z" fill="#2F2E41"/>
<path id="Vector_14" d="M481.369 167.45C498.986 167.45 513.267 153.169 513.267 135.552C513.267 117.935 498.986 103.653 481.369 103.653C463.752 103.653 449.47 117.935 449.47 135.552C449.47 153.169 463.752 167.45 481.369 167.45Z" fill="#FBBEBE"/>
<path id="Vector_15" d="M424.821 272.57C425.313 272.48 425.313 272.48 425.313 272.479L425.313 272.477L425.311 272.467L425.304 272.429L425.276 272.276L425.166 271.681C425.069 271.159 424.928 270.394 424.747 269.418C424.384 267.466 423.863 264.674 423.228 261.309C421.96 254.579 420.237 245.561 418.425 236.406C416.612 227.252 414.708 217.959 413.075 210.68C412.259 207.042 411.51 203.902 410.873 201.533C410.554 200.349 410.263 199.352 410.003 198.578C409.75 197.824 409.511 197.231 409.288 196.897C409.25 196.84 409.242 196.798 409.243 196.761C409.244 196.718 409.259 196.647 409.32 196.542C409.449 196.32 409.733 196.034 410.215 195.695C411.169 195.026 412.716 194.275 414.701 193.479C418.658 191.891 424.22 190.174 429.891 188.587C435.558 187.002 441.317 185.552 445.66 184.498C447.831 183.971 449.648 183.543 450.922 183.247C451.559 183.099 452.06 182.984 452.402 182.906C452.491 182.886 452.569 182.868 452.636 182.853C452.678 182.898 452.725 182.949 452.779 183.006C453.008 183.248 453.351 183.592 453.817 184.01C454.748 184.846 456.167 185.976 458.133 187.173C462.067 189.568 468.185 192.224 476.957 193.32L476.958 193.32C482.142 193.96 487.403 193.517 492.407 192.02C497.365 190.536 501.965 188.049 505.921 184.714C508.103 184.428 511.259 184.781 514.826 185.507C518.454 186.244 522.45 187.354 526.17 188.508C529.888 189.662 533.324 190.858 535.83 191.765C537.083 192.219 538.103 192.6 538.81 192.868C539.15 192.997 539.417 193.099 539.603 193.171L539.607 193.301C539.617 193.601 539.632 194.044 539.651 194.613C539.687 195.751 539.738 197.393 539.795 199.408C539.908 203.439 540.044 208.965 540.135 214.943C540.316 226.912 540.315 240.656 539.593 247.872C538.434 259.468 533.551 265.378 529.778 269.945C528.889 271.02 528.062 272.021 527.36 273.005C526.396 274.354 525.381 277.015 524.496 280.372C523.606 283.752 522.831 287.9 522.376 292.274C521.468 300.99 521.813 310.726 525.15 317.027C526.761 320.071 529.151 326.199 531.861 333.794C534.566 341.377 537.577 350.389 540.431 359.177C546.139 376.755 551.212 393.423 551.935 395.952C551.966 396.064 551.949 396.307 551.687 396.744C551.435 397.163 551.011 397.671 550.414 398.261C549.224 399.438 547.423 400.866 545.181 402.465C540.703 405.657 534.533 409.477 528.147 413.236C518.634 418.836 508.696 424.27 503.176 427.288C501.278 428.326 499.902 429.078 499.245 429.454C496.88 430.805 493.779 430.662 490.74 429.858C487.718 429.058 484.862 427.631 483.076 426.559C482.509 426.22 481.936 426.15 481.377 426.313C480.845 426.468 480.369 426.822 479.942 427.244C479.296 427.88 478.654 428.784 478.015 429.684C477.82 429.959 477.625 430.233 477.431 430.499C476.568 431.68 475.694 432.729 474.722 433.282C474.247 433.552 473.76 433.696 473.245 433.684C472.73 433.672 472.148 433.504 471.484 433.089C470.711 432.605 469.272 431.989 467.385 431.282C465.483 430.569 463.086 429.748 460.364 428.858C454.921 427.077 448.165 425.014 441.46 422.976C440.905 422.807 440.35 422.638 439.797 422.47C433.66 420.605 427.662 418.782 422.845 417.235C420.219 416.392 417.949 415.632 416.203 414.994C414.433 414.348 413.259 413.846 412.774 413.523C412.605 413.41 412.42 413.192 412.242 412.818C412.066 412.447 411.913 411.957 411.789 411.346C411.541 410.123 411.422 408.483 411.434 406.499C411.456 402.537 411.996 397.288 412.99 391.458C414.979 379.797 418.774 365.89 423.822 355.434C426.402 350.088 427.766 342.215 428.379 333.469C428.992 324.707 428.855 315.012 428.402 305.984C427.948 296.955 427.177 288.586 426.519 282.474C426.19 279.418 425.89 276.925 425.671 275.197C425.562 274.332 425.474 273.659 425.412 273.201C425.381 272.972 425.358 272.797 425.341 272.68L425.323 272.546L425.318 272.512L425.317 272.504L425.317 272.501C425.316 272.501 425.316 272.501 424.821 272.57ZM424.821 272.57L425.313 272.48L425.315 272.49L425.316 272.501L424.821 272.57Z" fill="#FF577F" stroke="#FB75E7"/>
<path id="Vector_16" d="M410.47 194.933C410.47 194.933 404.522 199.349 402.347 208.773C400.172 218.198 397.273 293.594 397.273 293.594C397.273 293.594 370.449 397.265 376.249 399.439C382.048 401.614 398.723 405.964 400.897 403.789C403.072 401.614 427.721 313.894 425.546 304.469C423.371 295.044 428.446 267.496 428.446 267.496L410.47 194.933Z" fill="#FF577F"/>
<path id="Vector_17" d="M544.441 329.843C544.441 329.843 505.293 310.269 500.943 323.318C496.593 336.367 542.266 350.142 542.266 350.142C542.266 350.142 558.215 344.342 558.215 340.717C558.215 337.092 544.441 329.843 544.441 329.843Z" fill="#FBBEBE"/>
<path id="Vector_18" d="M532.116 195.724L540.091 192.824C540.091 192.824 544.441 189.924 549.515 200.799C554.59 211.673 609.688 275.47 599.538 295.769C589.388 316.068 556.04 357.391 554.59 354.492C553.14 351.592 536.466 329.843 539.366 327.668C542.266 325.493 575.614 295.769 571.264 291.42C566.915 287.07 548.79 250.097 538.641 248.647C528.491 247.197 532.116 195.724 532.116 195.724Z" fill="#FF577F"/>
<path id="Vector_19" d="M461.795 148.601C461.795 148.601 466.144 176.15 458.17 179.775C450.195 183.4 445.12 186.3 445.12 186.3L463.244 198.624L496.593 200.799L505.292 194.274L513.267 187.024C513.267 187.024 500.218 184.125 500.218 177.6C500.218 171.075 499.493 151.501 499.493 151.501L461.795 148.601Z" fill="#FBBEBE"/>
<path id="Vector_20" d="M453.712 83.4979C449.89 86.6488 446.265 90.1799 443.888 94.526C442.642 96.9636 441.6 99.5003 440.773 102.11C437.841 110.547 430.554 119.093 433.638 127.475C434.518 129.867 435.891 132.389 435.102 134.813C434.401 136.965 432.238 138.221 430.674 139.857C427.317 143.368 426.752 148.637 426.547 153.491C426.172 162.38 431.059 172.855 436.965 179.509C438.247 180.761 439.435 182.106 440.519 183.533C441.25 184.671 441.728 185.953 441.92 187.291C442.112 188.63 442.014 189.994 441.633 191.292L450.236 189.496C450.546 192.673 450.643 195.866 450.526 199.055C452.566 199.279 454.621 198.794 456.345 197.68C458.069 196.566 459.356 194.892 459.989 192.94C460.476 195.214 461.271 197.411 462.353 199.47C464.876 196.314 466.812 192.729 468.067 188.888C469.713 183.967 470.067 178.706 469.093 173.61C468.182 169.888 466.942 166.254 465.389 162.75C462.349 155.068 459.866 147.178 457.387 139.297C456.099 135.203 454.795 130.977 455.186 126.703L458.243 126.371C458.276 124.683 458.603 123.014 459.207 121.437C460.999 121.816 462.723 122.465 464.32 123.361L467.844 114.419C470.17 116.831 473.508 117.923 476.704 118.929L488.853 122.755L488.927 120.35C494.054 124.89 499.895 128.553 506.214 131.194C505.857 130.763 505.596 130.261 505.449 129.721C505.302 129.182 505.272 128.617 505.36 128.065C508.354 133.428 507.157 140.109 505.309 145.967C503.461 151.824 501.01 157.788 501.754 163.885C502.311 168.445 504.646 172.806 504.213 177.379C504 179.631 503.119 181.774 502.845 184.02C502.192 189.375 505.008 194.475 507.726 199.136L513.011 191.877C514.946 189.22 516.94 186.506 519.679 184.69C522.49 182.826 525.975 181.99 528.425 179.671C532.799 175.532 532.244 168.48 530.821 162.629C530.065 159.518 529.15 156.364 529.428 153.174C529.9 147.768 533.656 143.295 535.772 138.298C537.28 134.654 537.934 130.714 537.683 126.778C537.432 122.843 536.283 119.017 534.325 115.595C531.699 111.092 527.732 107.465 525.258 102.877C522.796 98.3098 521.856 92.8755 518.482 88.9338C516.834 87.1401 514.917 85.6133 512.801 84.4078C503.21 78.6455 492.438 75.1312 481.294 74.129C470.726 73.0241 461.811 76.8221 453.712 83.4979Z" fill="#AD5557"/>
</g>
</g>
<defs>
<clipPath id="clip0">
<rect width="860.282" height="771.924" fill="white"/>
</clipPath>
</defs>
</svg>
