<svg width="861" height="772" viewBox="0 0 861 772" fill="pink" xmlns="http://www.w3.org/2000/svg">
<g id="superwoman 1" clip-path="url(#clip0)">
<g id="floor">
<path id="Vector" d="M449.783 771.924C606.079 771.924 732.783 752.673 732.783 728.924C732.783 705.176 606.079 685.924 449.783 685.924C293.486 685.924 166.783 705.176 166.783 728.924C166.783 752.673 293.486 771.924 449.783 771.924Z" fill="#F2F2F2"/>
</g>
<g id="clouds">
<path id="Vector_2" d="M586.758 113.838C587.541 98.8758 594.036 84.785 604.903 74.4713C615.771 64.1577 630.182 58.4077 645.164 58.4074C646.942 58.4074 648.697 58.5002 650.434 58.6554C657.266 46.9013 667.063 37.1454 678.845 30.3621C690.628 23.5788 703.984 20.0056 717.579 19.9991C731.175 19.9927 744.534 23.5534 756.323 30.3255C768.112 37.0977 777.917 46.8443 784.761 58.5919C786.226 58.4819 787.702 58.4075 789.195 58.4075C804.178 58.4078 818.589 64.1577 829.456 74.4714C840.323 84.785 846.818 98.8759 847.601 113.838" fill="#F2F2F2"/>
<path id="Vector_3" d="M161.758 391.838C162.541 376.876 169.036 362.785 179.903 352.471C190.771 342.158 205.182 336.408 220.164 336.407C221.942 336.407 223.697 336.5 225.434 336.655C232.266 324.901 242.063 315.145 253.845 308.362C265.628 301.579 278.984 298.006 292.579 297.999C306.175 297.993 319.534 301.553 331.323 308.326C343.112 315.098 352.917 324.844 359.761 336.592C361.226 336.482 362.702 336.407 364.195 336.407C379.178 336.408 393.589 342.158 404.456 352.471C415.323 362.785 421.818 376.876 422.601 391.838" fill="#F2F2F2"/>
<path id="Vector_4" d="M37.7581 98.8377C38.5411 83.8758 45.0361 69.785 55.9034 59.4713C66.7707 49.1577 81.1817 43.4077 96.164 43.4074C97.9416 43.4074 99.6968 43.5002 101.434 43.6554C108.266 31.9013 118.063 22.1454 129.845 15.3621C141.628 8.57885 154.984 5.00555 168.579 4.99912C182.175 4.9927 195.534 8.55336 207.323 15.3255C219.112 22.0977 228.917 31.8443 235.761 43.5919C237.226 43.4819 238.702 43.4075 240.195 43.4075C255.178 43.4078 269.589 49.1577 280.456 59.4714C291.323 69.785 297.818 83.8759 298.601 98.8377" fill="#F2F2F2"/>
</g>
<g id="flag">
<path id="Vector_5" d="M295.052 217.473C295.052 217.473 400.172 269.671 419.022 262.421C437.871 255.171 444.395 190.649 444.395 190.649L366.824 176.15L295.052 217.473Z" fill="#6C63FF"/>
<path id="Vector_6" opacity="0.1" d="M295.052 217.473C295.052 217.473 400.172 269.671 419.022 262.421C437.871 255.171 444.395 190.649 444.395 190.649L366.824 176.15L295.052 217.473Z" fill="black"/>
</g>
<g id="flyflag">
<path id="Vector_7" d="M446.208 134.464C446.208 134.464 335.659 90.0146 239.964 47.2416C239.964 47.2416 189.941 34.9172 163.842 58.1161C163.842 58.1161 185.591 55.2162 185.591 67.5406C185.591 67.5406 204.44 92.1895 145.718 96.5392C104.822 99.5686 88.5397 124.047 82.4226 138.629C77.6469 150.335 69.2519 160.206 58.4649 166.799C44.3302 175.247 23.8447 181.462 0 170.486C0 170.486 1.35558 172.57 3.92694 176.042C49.9652 238.214 221.408 292.323 281.949 244.16C319.364 214.396 378.677 176.775 421.196 195.724C487.893 225.448 500.218 212.398 500.218 212.398L503.118 204.424C503.118 204.424 438.596 187.024 437.146 164.551C435.696 142.077 446.208 134.464 446.208 134.464Z" fill="#6C63FF"/>
</g>
<g id="body">
<path id="Vector_8" d="M381.323 395.815C381.323 395.815 378.424 458.887 397.998 457.437C417.572 455.987 397.998 397.99 397.998 397.99L381.323 395.815Z" fill="#FBBEBE"/>
<path id="Vector_9" opacity="0.1" d="M461.795 148.601C461.795 148.601 466.144 176.15 458.17 179.775C450.195 183.4 445.12 186.3 445.12 186.3L463.244 198.624L496.593 200.799L505.292 194.274L513.267 187.024C513.267 187.024 500.218 184.125 500.218 177.6C500.218 171.075 499.493 151.501 499.493 151.501L461.795 148.601Z" fill="black"/>
<path id="Vector_10" d="M416.122 406.689C416.122 406.689 395.098 474.111 395.098 523.409C395.098 523.409 360.299 601.705 361.749 640.128L353.05 693.051L365.374 697.4L374.799 689.426C374.799 689.426 377.699 661.152 387.123 647.378C396.548 633.603 418.297 568.356 418.297 568.356C418.297 568.356 476.294 446.562 474.119 429.163C471.944 411.764 416.122 406.689 416.122 406.689Z" fill="#FBBEBE"/>
<path id="Vector_11" d="M544.441 391.465C544.441 391.465 558.215 397.989 538.641 513.984C538.641 513.984 549.515 590.83 540.091 632.878L538.641 674.926H523.417L520.517 670.577C520.517 670.577 519.792 632.878 514.717 622.729C509.642 612.579 505.293 553.857 505.293 553.857C505.293 553.857 482.094 434.238 487.168 424.088C492.243 413.939 544.441 391.465 544.441 391.465Z" fill="#FBBEBE"/>
<path id="Vector_12" d="M517.617 662.602C517.617 662.602 522.692 672.751 530.666 670.577C538.641 668.402 541.541 664.777 541.541 664.777C541.541 664.777 540.816 687.251 543.716 697.4C546.616 707.55 553.14 736.548 537.916 737.998C533.735 738.506 529.501 737.652 525.844 735.562C522.187 733.473 519.302 730.259 517.617 726.399V662.602L517.617 662.602Z" fill="#2F2E41"/>
<path id="Vector_13" d="M410.47 194.933C410.47 194.933 404.522 199.349 402.347 208.773C400.172 218.198 397.273 293.594 397.273 293.594C397.273 293.594 370.449 397.265 376.249 399.439C382.048 401.614 398.723 405.964 400.897 403.789C403.072 401.614 427.721 313.894 425.546 304.469C423.371 295.044 428.446 267.496 428.446 267.496L410.47 194.933Z" fill="#2F2E41"/>
<path id="Vector_14" opacity="0.1" d="M512.905 139.539H444.033V199.711H512.905V139.539Z" fill="black"/>
<path id="Vector_15" d="M512.905 139.539H444.033V199.711H512.905V139.539Z" fill="#FF6584"/>
<path id="Vector_16" d="M540.091 192.824C540.091 192.824 514.824 182.903 505.708 184.239C501.78 187.576 497.202 190.063 492.264 191.541C487.326 193.018 482.135 193.456 477.019 192.824C459.62 190.649 452.816 182.299 452.816 182.299C452.816 182.299 405.972 192.824 408.872 197.174C411.772 201.524 424.821 272.57 424.821 272.57C424.821 272.57 433.521 334.193 423.371 355.217C413.222 376.241 408.147 411.039 412.497 413.939C416.847 416.839 465.419 429.888 471.219 433.513C477.019 437.138 479.194 424.813 482.819 426.988C486.443 429.163 494.418 432.788 499.493 429.888C504.568 426.988 553.865 400.889 552.415 395.815C550.965 390.74 532.116 329.118 525.592 316.793C519.067 304.469 524.142 278.37 527.766 273.295C531.391 268.221 538.641 262.421 540.091 247.922C541.541 233.422 540.091 192.824 540.091 192.824Z" fill="#2F2E41"/>
<path id="Vector_17" d="M544.441 329.843C544.441 329.843 505.293 310.269 500.943 323.318C496.593 336.367 542.266 350.142 542.266 350.142C542.266 350.142 558.215 344.342 558.215 340.717C558.215 337.092 544.441 329.843 544.441 329.843Z" fill="#FBBEBE"/>
<path id="Vector_18" d="M532.116 195.724L540.091 192.824C540.091 192.824 544.441 189.924 549.515 200.799C554.59 211.673 609.688 275.47 599.538 295.769C589.388 316.068 556.04 357.391 554.59 354.492C553.14 351.592 536.466 329.843 539.366 327.668C542.266 325.493 575.614 295.769 571.264 291.42C566.915 287.07 548.79 250.097 538.641 248.647C528.491 247.197 532.116 195.724 532.116 195.724Z" fill="#2F2E41"/>
<path id="Vector_19" d="M510.73 140.264C510.73 140.264 526.316 146.426 529.216 166.725C529.216 166.725 545.891 199.349 527.041 207.324C508.192 215.298 504.568 213.123 504.568 213.123V209.498C504.568 209.498 524.867 197.174 520.517 187.749C516.167 178.325 510.73 140.264 510.73 140.264Z" fill="#6C63FF"/>
<path id="Vector_20" d="M482.819 232.697C482.819 232.697 487.893 219.648 486.443 219.648C484.993 219.648 492.342 211.622 495.192 214.548C498.043 217.473 503.118 226.173 497.318 228.347C491.518 230.522 482.819 232.697 482.819 232.697Z" fill="#6C63FF"/>
<path id="Vector_21" d="M461.795 148.601C461.795 148.601 466.144 176.15 458.17 179.775C450.195 183.4 445.12 186.3 445.12 186.3L463.244 198.624L496.593 200.799L505.292 194.274L513.267 187.024C513.267 187.024 500.218 184.125 500.218 177.6C500.218 171.075 499.493 151.501 499.493 151.501L461.795 148.601Z" fill="#FBBEBE"/>
<path id="Vector_22" d="M518.547 224.952C518.547 224.952 505.295 220.433 505.357 221.882C505.418 223.33 497.088 216.328 499.891 213.356C502.693 210.385 511.171 204.947 513.589 210.649C516.007 216.352 518.547 224.952 518.547 224.952Z" fill="#6C63FF"/>
<path id="Vector_23" d="M497.318 205.149C497.318 205.149 503.937 201.434 507.877 207.278C511.817 213.123 503.118 223.273 497.318 223.273C491.518 223.273 491.518 210.948 491.518 210.948L497.318 205.149Z" fill="#6C63FF"/>
<path id="Vector_24" opacity="0.1" d="M497.318 205.149C497.318 205.149 503.937 201.434 507.877 207.278C511.817 213.123 503.118 223.273 497.318 223.273C491.518 223.273 491.518 210.948 491.518 210.948L497.318 205.149Z" fill="black"/>
<path id="Vector_25" d="M481.369 167.45C498.986 167.45 513.267 153.169 513.267 135.552C513.267 117.935 498.986 103.653 481.369 103.653C463.752 103.653 449.47 117.935 449.47 135.552C449.47 153.169 463.752 167.45 481.369 167.45Z" fill="#FBBEBE"/>
<path id="Vector_26" d="M453.712 83.4979C449.89 86.6488 446.265 90.1799 443.888 94.526C442.642 96.9636 441.6 99.5003 440.773 102.11C437.841 110.547 430.554 119.093 433.638 127.475C434.518 129.867 435.891 132.389 435.102 134.813C434.401 136.965 432.238 138.221 430.674 139.857C427.317 143.368 426.752 148.637 426.547 153.491C426.172 162.38 431.059 172.855 436.965 179.509C438.247 180.761 439.435 182.106 440.519 183.533C441.25 184.671 441.728 185.953 441.92 187.291C442.112 188.63 442.014 189.994 441.633 191.292L450.236 189.496C450.546 192.673 450.643 195.866 450.526 199.055C452.566 199.279 454.621 198.794 456.345 197.68C458.069 196.566 459.356 194.892 459.989 192.94C460.476 195.214 461.271 197.411 462.353 199.47C464.876 196.314 466.812 192.729 468.067 188.888C469.713 183.967 470.067 178.706 469.093 173.61C468.182 169.888 466.942 166.254 465.389 162.75C462.349 155.068 459.866 147.178 457.387 139.297C456.099 135.203 454.795 130.977 455.186 126.703L458.243 126.371C458.276 124.683 458.603 123.014 459.207 121.437C460.999 121.816 462.723 122.465 464.32 123.361L467.844 114.419C470.17 116.831 473.508 117.923 476.704 118.929L488.853 122.755L488.927 120.35C494.054 124.89 499.895 128.553 506.214 131.194C505.857 130.763 505.596 130.261 505.449 129.721C505.302 129.182 505.272 128.617 505.36 128.065C508.354 133.428 507.157 140.109 505.309 145.967C503.461 151.824 501.01 157.788 501.754 163.885C502.311 168.445 504.646 172.806 504.213 177.379C504 179.631 503.119 181.774 502.845 184.02C502.192 189.375 505.008 194.475 507.726 199.136L513.011 191.877C514.946 189.22 516.94 186.506 519.679 184.69C522.49 182.826 525.975 181.99 528.425 179.671C532.799 175.532 532.244 168.48 530.821 162.629C530.065 159.518 529.15 156.364 529.428 153.174C529.9 147.768 533.656 143.295 535.772 138.298C537.28 134.654 537.934 130.714 537.683 126.778C537.432 122.843 536.283 119.017 534.325 115.595C531.699 111.092 527.732 107.465 525.258 102.877C522.796 98.3098 521.856 92.8755 518.482 88.9338C516.834 87.1401 514.917 85.6133 512.801 84.4078C503.21 78.6455 492.438 75.1312 481.294 74.129C470.726 73.0241 461.811 76.8221 453.712 83.4979Z" fill="#FF6584"/>
</g>
</g>
<defs>
<clipPath id="clip0">
<rect width="860.282" height="771.924" fill="white"/>
</clipPath>
</defs>
</svg>
