<svg width="614" height="435" viewBox="0 0 614 435" fill="none" xmlns="http://www.w3.org/2000/svg">
<g clip-path="url(#clip0)">
<path d="M74.1974 435L73.1438 434.724C84.8923 374.003 114.417 318.863 156.28 279.46C187.93 249.717 225.572 229.825 265.663 221.656C305.754 213.488 346.974 217.312 385.442 232.768C423.91 248.225 458.36 274.805 485.549 310.007C512.738 345.208 531.771 387.873 540.856 433.983L539.804 434.261C514.934 307.354 419.231 218.72 307.072 218.72C196.383 218.72 98.445 309.679 74.1974 435Z" fill="#3F3D56"/>
<path d="M225.259 77.6462C241.459 77.6462 254.59 62.3843 254.59 43.5578C254.59 24.7313 241.459 9.46936 225.259 9.46936C209.06 9.46936 195.928 24.7313 195.928 43.5578C195.928 62.3843 209.06 77.6462 225.259 77.6462Z" fill="#FF6584"/>
<path d="M98.8937 427.256C99.8085 431.186 102.942 433.62 102.942 433.62C102.942 433.62 104.592 429.682 103.677 425.752C102.762 421.822 99.6291 419.388 99.6291 419.388C99.6291 419.388 97.979 423.326 98.8937 427.256Z" fill="#3F3D56"/>
<path d="M100.238 426.411C102.748 429.251 103.055 433.617 103.055 433.617C103.055 433.617 99.2915 433.378 96.7814 430.538C94.2713 427.698 93.9647 423.333 93.9647 423.333C93.9647 423.333 97.7278 423.572 100.238 426.411Z" fill="#6C63FF"/>
<path d="M168.556 427.256C169.471 431.186 172.604 433.62 172.604 433.62C172.604 433.62 174.254 429.682 173.339 425.752C172.425 421.822 169.291 419.388 169.291 419.388C169.291 419.388 167.641 423.326 168.556 427.256Z" fill="#3F3D56"/>
<path d="M169.9 426.411C172.41 429.251 172.717 433.617 172.717 433.617C172.717 433.617 168.954 433.378 166.444 430.538C163.934 427.698 163.627 423.333 163.627 423.333C163.627 423.333 167.39 423.572 169.9 426.411Z" fill="#6C63FF"/>
<path d="M182.369 114.216L171.34 103.961L233.104 39.8711H389.719V96.2707L288.25 175.743L182.369 114.216Z" fill="#3F3D56"/>
<path d="M418.274 75.8222V41.1514H397.48V49.6423L389.719 39.8711L338.985 103.961L319.132 119.343L288.35 380.717L334.773 434.669H442.66V106.525L418.274 75.8222Z" fill="#CCCCCC"/>
<path d="M338.985 103.962H171.34V434.669H338.985V103.962Z" fill="#F2F2F2"/>
<path d="M267.295 353.915H236.413V434.669H267.295V353.915Z" fill="#CCCCCC"/>
<path d="M203.325 376.988V364.169H190.09V376.988H202.222H203.325Z" fill="#3F3D56"/>
<path d="M202.222 387.242H190.09V400.06H203.325V387.242H202.222Z" fill="#3F3D56"/>
<path d="M225.384 364.17H212.148V376.988H225.384V364.17Z" fill="#3F3D56"/>
<path d="M225.384 387.242H212.148V400.06H225.384V387.242Z" fill="#3F3D56"/>
<path d="M293.765 376.988V364.169H280.53V376.988H292.662H293.765Z" fill="#3F3D56"/>
<path d="M292.662 387.242H280.53V400.06H293.765V387.242H292.662Z" fill="#3F3D56"/>
<path d="M315.823 364.17H302.588V376.988H315.823V364.17Z" fill="#3F3D56"/>
<path d="M315.823 387.242H302.588V400.06H315.823V387.242Z" fill="#3F3D56"/>
<path d="M386.411 120.625V107.807H373.175V120.625H385.308H386.411Z" fill="#3F3D56"/>
<path d="M385.308 130.88H373.175V143.698H386.411V130.88H385.308Z" fill="#3F3D56"/>
<path d="M408.469 107.807H395.234V120.625H408.469V107.807Z" fill="#3F3D56"/>
<path d="M408.469 130.88H395.234V143.698H408.469V130.88Z" fill="#3F3D56"/>
<path d="M386.411 192.407V179.588H373.175V192.407H385.308H386.411Z" fill="#3F3D56"/>
<path d="M385.308 202.661H373.175V215.479H386.411V202.661H385.308Z" fill="#3F3D56"/>
<path d="M408.469 179.589H395.234V192.407H408.469V179.589Z" fill="#3F3D56"/>
<path d="M408.469 202.661H395.234V215.479H408.469V202.661Z" fill="#3F3D56"/>
<path d="M386.411 264.188V251.37H373.175V264.188H385.308H386.411Z" fill="#3F3D56"/>
<path d="M385.308 274.443H373.175V287.261H386.411V274.443H385.308Z" fill="#3F3D56"/>
<path d="M408.469 251.37H395.234V264.188H408.469V251.37Z" fill="#3F3D56"/>
<path d="M408.469 274.443H395.234V287.261H408.469V274.443Z" fill="#3F3D56"/>
<path d="M386.411 335.97V323.152H373.175V335.97H385.308H386.411Z" fill="#3F3D56"/>
<path d="M385.308 346.224H373.175V359.042H386.411V346.224H385.308Z" fill="#3F3D56"/>
<path d="M408.469 323.152H395.234V335.97H408.469V323.152Z" fill="#3F3D56"/>
<path d="M408.469 346.224H395.234V359.042H408.469V346.224Z" fill="#3F3D56"/>
<path d="M318.029 120.625H190.09V151.389H318.029V120.625Z" fill="#3F3D56"/>
<path d="M318.029 182.152H190.09V212.916H318.029V182.152Z" fill="#3F3D56"/>
<path d="M318.029 243.679H190.09V274.443H318.029V243.679Z" fill="#3F3D56"/>
<path d="M318.029 305.206H190.09V335.97H318.029V305.206Z" fill="#3F3D56"/>
<path d="M614 433.379H0V434.634H614V433.379Z" fill="#3F3D56"/>
<path d="M105.994 288.456H102.822V434.094H105.994V288.456Z" fill="#3F3D56"/>
<path d="M135.273 307.016C135.475 357.942 104.646 399.392 104.646 399.392C104.646 399.392 73.4896 358.274 73.2877 307.348C73.0858 256.422 103.915 214.973 103.915 214.973C103.915 214.973 135.071 256.09 135.273 307.016Z" fill="#6C63FF"/>
<path opacity="0.1" d="M135.273 307.016C135.475 357.942 104.646 399.392 104.646 399.392C104.646 399.392 73.4896 358.274 73.2877 307.348C73.0858 256.422 103.915 214.973 103.915 214.973C103.915 214.973 135.071 256.09 135.273 307.016Z" fill="black"/>
<path d="M64.7522 288.456H61.5797V434.094H64.7522V288.456Z" fill="#3F3D56"/>
<path d="M94.0306 307.016C94.2326 357.942 63.4037 399.392 63.4037 399.392C63.4037 399.392 32.2474 358.274 32.0455 307.348C31.8435 256.422 62.6724 214.973 62.6724 214.973C62.6724 214.973 93.8287 256.09 94.0306 307.016Z" fill="#6C63FF"/>
<path d="M510.616 103.756C485.626 103.89 465.285 104.319 465.285 104.319C465.285 104.319 489.463 67.0972 510.525 80.8875C531.588 94.6778 555.782 103.834 555.782 103.834C555.782 103.834 535.606 103.622 510.616 103.756Z" fill="#F2F2F2"/>
<path d="M94.2625 175.303C69.2723 175.436 48.9312 175.866 48.9312 175.866C48.9312 175.866 73.1097 138.644 94.1718 152.434C115.234 166.225 139.429 175.381 139.429 175.381C139.429 175.381 119.253 175.169 94.2625 175.303Z" fill="#F2F2F2"/>
<path d="M184.985 25.9328C159.995 26.0666 139.654 26.4957 139.654 26.4957C139.654 26.4957 163.833 -10.7258 184.895 3.06454C205.957 16.8548 230.152 26.011 230.152 26.011C230.152 26.011 209.976 25.7989 184.985 25.9328Z" fill="#F2F2F2"/>
<path d="M562.108 288.456H558.936V434.094H562.108V288.456Z" fill="#3F3D56"/>
<path d="M591.387 307.016C591.589 357.942 560.76 399.392 560.76 399.392C560.76 399.392 529.604 358.274 529.402 307.348C529.2 256.422 560.029 214.973 560.029 214.973C560.029 214.973 591.185 256.09 591.387 307.016Z" fill="#6C63FF"/>
<path d="M445.335 343.694H477.352V334.713H495.016V343.694H528.137V383.471H495.016V433.511H477.352V383.471H445.335L428.774 361.658L445.335 343.694Z" fill="#3F3D56"/>
</g>
<defs>
<clipPath id="clip0">
<rect width="614" height="435" fill="white"/>
</clipPath>
</defs>
</svg>
